<?xml version="1.0" encoding="utf-8"?>
<!-- Generator: Adobe Illustrator 18.1.1, SVG Export Plug-In . SVG Version: 6.00 Build 0)  -->
<svg version="1.1" id="Layer_1" xmlns="http://www.w3.org/2000/svg" xmlns:xlink="http://www.w3.org/1999/xlink" x="0px" y="0px"
	 viewBox="0 0 786.3 270.8" enable-background="new 0 0 786.3 270.8" xml:space="preserve">
<g>
	<defs>
		<rect id="SVGID_1_" x="17.1" y="14.9" width="749.8" height="236.2"/>
	</defs>
	<clipPath id="SVGID_2_">
		<use xlink:href="#SVGID_1_"  overflow="visible"/>
	</clipPath>
	<g clip-path="url(#SVGID_2_)">
		<defs>
			<rect id="SVGID_3_" x="16.9" y="-504.9" width="750" height="756"/>
		</defs>
		<clipPath id="SVGID_4_">
			<use xlink:href="#SVGID_3_"  overflow="visible"/>
		</clipPath>
		<g clip-path="url(#SVGID_4_)">
			<defs>
				<rect id="SVGID_5_" x="16.9" y="-504.9" width="750" height="756"/>
			</defs>
			<clipPath id="SVGID_6_">
				<use xlink:href="#SVGID_5_"  overflow="visible"/>
			</clipPath>
			<g clip-path="url(#SVGID_6_)">
				<defs>
					<rect id="SVGID_7_" x="787.8" y="-504.9" width="750" height="756"/>
				</defs>
				<clipPath id="SVGID_8_">
					<use xlink:href="#SVGID_7_"  overflow="visible"/>
				</clipPath>
				<g opacity="0.8" clip-path="url(#SVGID_8_)">
					<g>
						<defs>
							<rect id="SVGID_9_" x="368.8" y="-732.5" width="1644.2" height="1310.5"/>
						</defs>
						<clipPath id="SVGID_10_">
							<use xlink:href="#SVGID_9_"  overflow="visible"/>
						</clipPath>
						<path clip-path="url(#SVGID_10_)" fill="#F37920" d="M673.5-449.4h29v29.2h-29V-449.4z M680.7-464l-7.2-58.5v-43.8h29v43.8
							l-7.2,58.5H680.7z"/>
						<path clip-path="url(#SVGID_10_)" fill="#F37920" d="M713.9-397.5c0-4.6,7.1-66.7,7.5-86.7c0-1.1,0.2-1.5,1.5-1.5h3.8
							c1.3,0,1.5,0.8,1.5,2.1c0.4,20.3,6.3,77.4,6.3,86.1c0,6.5-4.4,12.4-10,12.4C718.7-385,713.2-388.4,713.9-397.5 M737.1-519.2
							c0,3.6-2.7,11.8-13.2,11.8c-5.9,0-11.7-4.9-11.7-12.7c0-7,5.4-11.6,11.7-11.6C728.5-531.7,737.1-529.1,737.1-519.2"/>
						<path clip-path="url(#SVGID_10_)" fill="#F37920" d="M767.4-419.8h-17.7v-20.1h17.7V-419.8z M767.4-565.8v60l-4,49.1h-9.8
							l-4-48.9v-60.2H767.4z"/>
						<path clip-path="url(#SVGID_10_)" fill="#F37920" d="M687.9-279.4c1.6,0,3,0.3,4.4,0.9c1.4,0.6,2.6,1.4,3.6,2.4
							c1,1,1.8,2.2,2.4,3.5c0.6,1.4,0.9,2.8,0.9,4.3c0,1.6-0.3,3-0.9,4.4c-0.6,1.3-1.4,2.5-2.4,3.5c-1,1-2.2,1.8-3.6,2.4
							c-1.4,0.6-2.9,0.9-4.4,0.9c-1.6,0-3-0.3-4.4-0.9c-1.4-0.6-2.6-1.4-3.6-2.4c-1-1-1.8-2.1-2.4-3.5c-0.6-1.3-0.9-2.8-0.9-4.4
							c0-1.5,0.3-2.9,0.9-4.3c0.6-1.4,1.4-2.5,2.4-3.5c1-1,2.2-1.8,3.6-2.4C684.9-279.1,686.4-279.4,687.9-279.4 M684.6-296.2
							c-0.3-7.7-0.9-15.5-1.9-23.4c-0.9-7.9-1.9-15.7-3-23.4c-1-7.7-2-15.3-2.8-22.6c-0.8-7.4-1.2-14.4-1.2-20.9
							c0-2.6,0.4-4.9,1.1-6.9c0.7-2,1.6-3.8,2.7-5.2c1.1-1.4,2.4-2.5,3.8-3.2c1.4-0.7,2.9-1.1,4.5-1.1c3.5,0,6.4,1.5,8.8,4.4
							c2.3,2.9,3.5,6.9,3.5,12.1c0,6.6-0.4,13.6-1.3,20.9c-0.9,7.4-1.8,14.9-2.9,22.6c-1.1,7.7-2.1,15.5-3,23.4
							c-1,7.9-1.6,15.7-1.9,23.4H684.6z"/>
						<path clip-path="url(#SVGID_10_)" fill="#F37920" d="M673.5-130h29v29.2h-29V-130z M680.7-144.6l-7.2-58.5v-43.8h29v43.8
							l-7.2,58.5H680.7z"/>
						<path clip-path="url(#SVGID_10_)" fill="#F37920" d="M735.1-221.5h-20.9v-111.7h20.9V-221.5z M737.5-354.8
							c0,3.5-1.3,6.5-3.8,9c-2.5,2.5-5.5,3.8-9,3.8c-3.5,0-6.5-1.3-9.1-3.8c-2.5-2.5-3.8-5.6-3.8-9.1c0-3.6,1.3-6.7,3.8-9.2
							c2.5-2.5,5.5-3.7,9.1-3.7c3.6,0,6.7,1.2,9.1,3.7C736.2-361.7,737.5-358.6,737.5-354.8"/>
						<path clip-path="url(#SVGID_10_)" fill="#F37920" d="M713.9-78c0-4.6,7.1-66.7,7.5-86.7c0-1.1,0.2-1.5,1.5-1.5h3.8
							c1.3,0,1.5,0.8,1.5,2.1c0.4,20.3,6.3,77.4,6.3,86.1c0,6.5-4.4,12.4-10,12.4C718.7-65.6,713.2-69,713.9-78 M737.1-199.8
							c0,3.6-2.7,11.8-13.2,11.8c-5.9,0-11.7-4.9-11.7-12.7c0-7,5.4-11.6,11.7-11.6C728.5-212.2,737.1-209.7,737.1-199.8"/>
						<path clip-path="url(#SVGID_10_)" fill="#F37920" d="M767.6-257.1h-17.7v-17.8h17.7V-257.1z M766-294.2h-14.4l-4.8-110.9h23.5
							L766-294.2z"/>
						<path clip-path="url(#SVGID_10_)" fill="#F37920" d="M767.4-100.4h-17.7v-20.1h17.7V-100.4z M767.4-246.4v60l-4,49.1h-9.8
							l-4-48.9v-60.2H767.4z"/>
						<path clip-path="url(#SVGID_10_)" fill="#F37920" d="M368.8-419.7h29v-29.2h-29V-419.7z M368.8-565.9v43.8l7.2,58.5h14.5
							l7.2-58.5v-43.8H368.8z"/>
						<path clip-path="url(#SVGID_10_)" fill="#F37920" d="M462.7-419.8H445v-20.1h17.7V-419.8z M462.7-565.8v60l-4,49.1H449
							l-4-48.9v-60.2H462.7z"/>
						<path clip-path="url(#SVGID_10_)" fill="#F37920" d="M383.2-279.4c1.6,0,3,0.3,4.4,0.9c1.4,0.6,2.6,1.4,3.6,2.4
							c1,1,1.8,2.2,2.4,3.5c0.6,1.4,0.9,2.8,0.9,4.3c0,1.6-0.3,3-0.9,4.4c-0.6,1.3-1.4,2.5-2.4,3.5c-1,1-2.2,1.8-3.6,2.4
							c-1.4,0.6-2.9,0.9-4.4,0.9c-1.6,0-3-0.3-4.4-0.9c-1.4-0.6-2.6-1.4-3.6-2.4c-1-1-1.8-2.1-2.4-3.5c-0.6-1.3-0.9-2.8-0.9-4.4
							c0-1.5,0.3-2.9,0.9-4.3c0.6-1.4,1.4-2.5,2.4-3.5c1-1,2.2-1.8,3.6-2.4C380.2-279.1,381.7-279.4,383.2-279.4 M380-296.2
							c-0.3-7.7-0.9-15.5-1.9-23.4c-0.9-7.9-1.9-15.7-3-23.4c-1-7.7-2-15.3-2.8-22.6c-0.8-7.4-1.2-14.4-1.2-20.9
							c0-2.6,0.4-4.9,1.1-6.9c0.7-2,1.6-3.8,2.7-5.2c1.1-1.4,2.4-2.5,3.9-3.2c1.4-0.7,2.9-1.1,4.5-1.1c3.5,0,6.4,1.5,8.8,4.4
							c2.3,2.9,3.5,6.9,3.5,12.1c0,6.6-0.4,13.6-1.3,20.9c-0.9,7.4-1.8,14.9-2.9,22.6c-1.1,7.7-2.1,15.5-3,23.4
							c-1,7.9-1.6,15.7-1.9,23.4H380z"/>
						<path clip-path="url(#SVGID_10_)" fill="#F37920" d="M368.8-100.3h29v-29.2h-29V-100.3z M368.8-246.4v43.8l7.2,58.5h14.5
							l7.2-58.5v-43.8H368.8z"/>
						<path clip-path="url(#SVGID_10_)" fill="#F37920" d="M462.9-257.1h-17.7v-17.8h17.7V-257.1z M461.3-294.2h-14.4l-4.8-110.9
							h23.5L461.3-294.2z"/>
						<path clip-path="url(#SVGID_10_)" fill="#F37920" d="M462.7-100.4H445v-20.1h17.7V-100.4z M462.7-246.4v60l-4,49.1H449
							l-4-48.9v-60.2H462.7z"/>
						<path clip-path="url(#SVGID_10_)" fill="#F37920" d="M409.2-77.6c0-4.6,7.1-66.7,7.5-86.7c0-1.1,0.2-1.5,1.5-1.5h3.8
							c1.3,0,1.5,0.8,1.5,2.1c0.4,20.3,6.3,77.4,6.3,86.1c0,6.5-4.4,12.4-10,12.4C414-65.1,408.5-68.5,409.2-77.6"/>
						<path clip-path="url(#SVGID_10_)" fill="#F37920" d="M420-188.1c6.4,0,11.6-5.2,11.6-11.7c0-6.4-5.2-11.7-11.6-11.7
							c-6.4,0-11.6,5.2-11.6,11.7C408.4-193.3,413.6-188.1,420-188.1"/>
						<path clip-path="url(#SVGID_10_)" fill="#F37920" d="M409.2-397.5c0-4.6,7.1-66.7,7.5-86.7c0-1.1,0.2-1.5,1.5-1.5h3.8
							c1.3,0,1.5,0.8,1.5,2.1c0.4,20.3,6.3,77.4,6.3,86.1c0,6.5-4.4,12.4-10,12.4C414-385,408.5-388.4,409.2-397.5"/>
						<rect x="409.5" y="-333.2" clip-path="url(#SVGID_10_)" fill="#F37920" width="20.9" height="111.7"/>
						<path clip-path="url(#SVGID_10_)" fill="#F37920" d="M432.8-353.5c0,3.5-1.3,6.5-3.8,9c-2.5,2.5-5.5,3.8-9,3.8
							c-3.5,0-6.5-1.3-9-3.8c-2.5-2.5-3.8-5.6-3.8-9.1c0-3.6,1.3-6.7,3.8-9.2c2.5-2.5,5.5-3.7,9-3.7c3.6,0,6.7,1.2,9.1,3.7
							C431.6-360.3,432.8-357.2,432.8-353.5"/>
						<path clip-path="url(#SVGID_10_)" fill="#F37920" d="M577.7-398.3c0-3.4,1.1-14.7,3.3-34c2.2-19.3,4.2-38,5.8-56h7.8
							c1.5,18,3.3,36.7,5.5,56c2.2,19.3,3.3,30.6,3.3,34c0,3.8-1.2,7.1-3.6,9.7c-2.4,2.6-5.5,3.9-9.2,3.9c-3.7,0-6.8-1.3-9.2-3.9
							C578.9-391.1,577.7-394.3,577.7-398.3 M576.8-520.3c0-3.8,1.4-7,4.1-9.7c2.7-2.7,5.9-4,9.7-4c3.7,0,7,1.3,9.7,4
							c2.7,2.7,4.1,5.9,4.1,9.7c0,3.8-1.4,7-4.1,9.8c-2.7,2.7-5.9,4.1-9.7,4.1c-3.7,0-7-1.4-9.7-4.1
							C578.1-513.3,576.8-516.6,576.8-520.3"/>
						<path clip-path="url(#SVGID_10_)" fill="#F37920" d="M532.2-452.6h32.7v32.8h-32.7V-452.6z M532.2-567.7h32.7v98.7h-32.7
							V-567.7z"/>
						<path clip-path="url(#SVGID_10_)" fill="#F37920" d="M606.9-338.4h-32.7v-32.8h32.7V-338.4z M606.9-223.2h-32.7v-98.7h32.7
							V-223.2z"/>
						<path clip-path="url(#SVGID_10_)" fill="#F37920" d="M577.7-78.8c0-3.4,1.1-14.7,3.3-34c2.2-19.3,4.2-38,5.8-56h7.8
							c1.5,18,3.3,36.7,5.5,56c2.2,19.3,3.3,30.6,3.3,34c0,3.8-1.2,7.1-3.6,9.7c-2.4,2.6-5.5,3.9-9.2,3.9c-3.7,0-6.8-1.3-9.2-3.9
							C578.9-71.7,577.7-74.9,577.7-78.8 M576.8-200.9c0-3.8,1.4-7,4.1-9.7c2.7-2.7,5.9-4,9.7-4c3.7,0,7,1.3,9.7,4
							c2.7,2.7,4.1,5.9,4.1,9.7c0,3.8-1.4,7-4.1,9.8c-2.7,2.7-5.9,4.1-9.7,4.1c-3.7,0-7-1.4-9.7-4.1
							C578.1-193.9,576.8-197.1,576.8-200.9"/>
						<path clip-path="url(#SVGID_10_)" fill="#F37920" d="M561.4-392.7c0,3.4-1.1,14.7-3.3,34c-2.2,19.3-4.2,38-5.8,56h-7.8
							c-1.5-18-3.3-36.7-5.5-56c-2.2-19.3-3.3-30.6-3.3-34c0-3.8,1.2-7.1,3.6-9.7c2.4-2.6,5.5-3.9,9.2-3.9c3.7,0,6.8,1.3,9.2,3.9
							C560.2-399.8,561.4-396.6,561.4-392.7 M562.3-270.6c0,3.8-1.4,7-4.1,9.7c-2.7,2.7-5.9,4-9.7,4c-3.7,0-7-1.3-9.7-4
							c-2.7-2.7-4.1-5.9-4.1-9.7s1.4-7,4.1-9.8c2.7-2.7,5.9-4.1,9.7-4.1c3.7,0,7,1.4,9.7,4.1C561-277.6,562.3-274.4,562.3-270.6"/>
						<path clip-path="url(#SVGID_10_)" fill="#F37920" d="M532.2-133.1h32.7v32.8h-32.7V-133.1z M532.2-248.3h32.7v98.7h-32.7
							V-248.3z"/>
						<polygon clip-path="url(#SVGID_10_)" fill="#F37920" points="511.9,-322.7 485.2,-322.7 477.8,-221.3 519.5,-221.3 						"/>
						<path clip-path="url(#SVGID_10_)" fill="#F37920" d="M498.9-334c9.7,0,17.5-7.9,17.5-17.7c0-9.8-7.8-17.7-17.5-17.7
							c-9.7,0-17.5,7.9-17.5,17.7C481.4-341.9,489.2-334,498.9-334"/>
						<polygon clip-path="url(#SVGID_10_)" fill="#F37920" points="485.6,-166.5 477.2,-98.8 477.2,-65.1 520.7,-65.1 520.7,-98.8 
							512.5,-166.5 						"/>
						<rect x="485.9" y="-206.1" clip-path="url(#SVGID_10_)" fill="#F37920" width="26.1" height="26.3"/>
						<polygon clip-path="url(#SVGID_10_)" fill="#F37920" points="520.7,-384.5 477.2,-384.5 477.2,-418.2 485.6,-485.9 
							512.5,-485.9 520.7,-418.2 						"/>
						<rect x="485.9" y="-525.5" clip-path="url(#SVGID_10_)" fill="#F37920" width="26.1" height="26.3"/>
						<polygon clip-path="url(#SVGID_10_)" fill="#F37920" points="627.2,-148.5 653.9,-148.5 661.3,-249.9 619.6,-249.9 						"/>
						<path clip-path="url(#SVGID_10_)" fill="#F37920" d="M640.2-137.3c-9.7,0-17.5,7.9-17.5,17.7c0,9.8,7.8,17.7,17.5,17.7
							c9.7,0,17.5-7.9,17.5-17.7C657.7-129.3,649.9-137.3,640.2-137.3"/>
						<polygon clip-path="url(#SVGID_10_)" fill="#F37920" points="627.2,-468.2 653.9,-468.2 661.3,-569.6 619.6,-569.6 						"/>
						<path clip-path="url(#SVGID_10_)" fill="#F37920" d="M640.2-456.9c-9.7,0-17.5,7.9-17.5,17.7c0,9.8,7.8,17.7,17.5,17.7
							c9.7,0,17.5-7.9,17.5-17.7C657.7-449,649.9-456.9,640.2-456.9"/>
						<polygon clip-path="url(#SVGID_10_)" fill="#F37920" points="618.4,-406.4 661.9,-406.4 661.9,-372.7 653.5,-305 626.6,-305 
							618.4,-372.7 						"/>
						<rect x="627.1" y="-291.7" clip-path="url(#SVGID_10_)" fill="#F37920" width="26.1" height="26.3"/>
						<path clip-path="url(#SVGID_10_)" fill="#F37920" d="M687.9,44.2c1.6,0,3,0.3,4.4,0.9c1.4,0.6,2.6,1.4,3.6,2.4
							c1,1,1.8,2.2,2.4,3.5c0.6,1.4,0.9,2.8,0.9,4.3c0,1.6-0.3,3-0.9,4.4c-0.6,1.3-1.4,2.5-2.4,3.5c-1,1-2.2,1.8-3.6,2.4
							c-1.4,0.6-2.9,0.9-4.4,0.9c-1.6,0-3-0.3-4.4-0.9c-1.4-0.6-2.6-1.4-3.6-2.4c-1-1-1.8-2.1-2.4-3.5c-0.6-1.3-0.9-2.8-0.9-4.4
							c0-1.5,0.3-2.9,0.9-4.3c0.6-1.4,1.4-2.5,2.4-3.5c1-1,2.2-1.8,3.6-2.4C684.9,44.5,686.4,44.2,687.9,44.2 M684.6,27.4
							c-0.3-7.7-0.9-15.5-1.9-23.4c-0.9-7.9-1.9-15.7-3-23.4c-1-7.7-2-15.3-2.8-22.6c-0.8-7.4-1.2-14.4-1.2-20.9
							c0-2.6,0.4-4.9,1.1-6.9c0.7-2,1.6-3.8,2.7-5.2c1.1-1.4,2.4-2.5,3.8-3.2c1.4-0.7,2.9-1.1,4.5-1.1c3.5,0,6.4,1.5,8.8,4.4
							c2.3,2.9,3.5,6.9,3.5,12.1c0,6.6-0.4,13.6-1.3,20.9c-0.9,7.4-1.8,14.9-2.9,22.6c-1.1,7.7-2.1,15.5-3,23.4
							c-1,7.9-1.6,15.7-1.9,23.4H684.6z"/>
						<path clip-path="url(#SVGID_10_)" fill="#F37920" d="M673.5,193.7h29v29.2h-29V193.7z M680.7,179l-7.2-58.5V76.7h29v43.8
							l-7.2,58.5H680.7z"/>
						<path clip-path="url(#SVGID_10_)" fill="#F37920" d="M735.1,102.1h-20.9V-9.6h20.9V102.1z M737.5-31.2c0,3.5-1.3,6.5-3.8,9
							c-2.5,2.5-5.5,3.8-9,3.8c-3.5,0-6.5-1.3-9.1-3.8c-2.5-2.5-3.8-5.6-3.8-9.1c0-3.6,1.3-6.7,3.8-9.2c2.5-2.5,5.5-3.7,9.1-3.7
							c3.6,0,6.7,1.2,9.1,3.7C736.2-38,737.5-34.9,737.5-31.2"/>
						<path clip-path="url(#SVGID_10_)" fill="#F37920" d="M713.9,245.6c0-4.6,7.1-66.7,7.5-86.7c0-1.1,0.2-1.5,1.5-1.5h3.8
							c1.3,0,1.5,0.8,1.5,2.1c0.4,20.3,6.3,77.4,6.3,86.1c0,6.5-4.4,12.4-10,12.4C718.7,258,713.2,254.7,713.9,245.6 M737.1,123.8
							c0,3.6-2.7,11.8-13.2,11.8c-5.9,0-11.7-4.9-11.7-12.7c0-7,5.4-11.6,11.7-11.6C728.5,111.4,737.1,113.9,737.1,123.8"/>
						<path clip-path="url(#SVGID_10_)" fill="#F37920" d="M767.6,66.6h-17.7V48.7h17.7V66.6z M766,29.5h-14.4l-4.8-110.9h23.5
							L766,29.5z"/>
						<path clip-path="url(#SVGID_10_)" fill="#F37920" d="M767.4,223.3h-17.7v-20.1h17.7V223.3z M767.4,77.2v60l-4,49.1h-9.8
							l-4-48.9V77.2H767.4z"/>
						<path clip-path="url(#SVGID_10_)" fill="#F37920" d="M687.9,363.7c1.6,0,3,0.3,4.4,0.9c1.4,0.6,2.6,1.4,3.6,2.4
							c1,1,1.8,2.2,2.4,3.5c0.6,1.4,0.9,2.8,0.9,4.3c0,1.6-0.3,3-0.9,4.4c-0.6,1.3-1.4,2.5-2.4,3.5c-1,1-2.2,1.8-3.6,2.4
							c-1.4,0.6-2.9,0.9-4.4,0.9c-1.6,0-3-0.3-4.4-0.9c-1.4-0.6-2.6-1.4-3.6-2.4c-1-1-1.8-2.1-2.4-3.5c-0.6-1.3-0.9-2.8-0.9-4.4
							c0-1.5,0.3-2.9,0.9-4.3c0.6-1.4,1.4-2.5,2.4-3.5c1-1,2.2-1.8,3.6-2.4C684.9,364,686.4,363.7,687.9,363.7 M684.6,346.8
							c-0.3-7.7-0.9-15.5-1.9-23.4c-0.9-7.9-1.9-15.7-3-23.4c-1-7.7-2-15.3-2.8-22.6c-0.8-7.4-1.2-14.4-1.2-20.9
							c0-2.6,0.4-4.9,1.1-6.9c0.7-2,1.6-3.8,2.7-5.2c1.1-1.4,2.4-2.5,3.8-3.2c1.4-0.7,2.9-1.1,4.5-1.1c3.5,0,6.4,1.5,8.8,4.4
							c2.3,2.9,3.5,6.9,3.5,12.1c0,6.6-0.4,13.6-1.3,20.9c-0.9,7.4-1.8,14.9-2.9,22.6c-1.1,7.7-2.1,15.5-3,23.4
							c-1,7.9-1.6,15.7-1.9,23.4H684.6z"/>
						<path clip-path="url(#SVGID_10_)" fill="#F37920" d="M767.6,386h-17.7v-17.8h17.7V386z M766,348.9h-14.4L746.8,238h23.5
							L766,348.9z"/>
						<path clip-path="url(#SVGID_10_)" fill="#F37920" d="M383.2,44.2c1.6,0,3,0.3,4.4,0.9c1.4,0.6,2.6,1.4,3.6,2.4
							c1,1,1.8,2.2,2.4,3.5c0.6,1.4,0.9,2.8,0.9,4.3c0,1.6-0.3,3-0.9,4.4c-0.6,1.3-1.4,2.5-2.4,3.5c-1,1-2.2,1.8-3.6,2.4
							c-1.4,0.6-2.9,0.9-4.4,0.9c-1.6,0-3-0.3-4.4-0.9c-1.4-0.6-2.6-1.4-3.6-2.4c-1-1-1.8-2.1-2.4-3.5c-0.6-1.3-0.9-2.8-0.9-4.4
							c0-1.5,0.3-2.9,0.9-4.3c0.6-1.4,1.4-2.5,2.4-3.5c1-1,2.2-1.8,3.6-2.4C380.2,44.5,381.7,44.2,383.2,44.2 M380,27.4
							c-0.3-7.7-0.9-15.5-1.9-23.4c-0.9-7.9-1.9-15.7-3-23.4c-1-7.7-2-15.3-2.8-22.6c-0.8-7.4-1.2-14.4-1.2-20.9
							c0-2.6,0.4-4.9,1.1-6.9c0.7-2,1.6-3.8,2.7-5.2c1.1-1.4,2.4-2.5,3.9-3.2c1.4-0.7,2.9-1.1,4.5-1.1c3.5,0,6.4,1.5,8.8,4.4
							c2.3,2.9,3.5,6.9,3.5,12.1c0,6.6-0.4,13.6-1.3,20.9c-0.9,7.4-1.8,14.9-2.9,22.6c-1.1,7.7-2.1,15.5-3,23.4
							c-1,7.9-1.6,15.7-1.9,23.4H380z"/>
						<path clip-path="url(#SVGID_10_)" fill="#F37920" d="M368.8,223.3h29v-29.2h-29V223.3z M368.8,77.2V121l7.2,58.5h14.5
							l7.2-58.5V77.2H368.8z"/>
						<path clip-path="url(#SVGID_10_)" fill="#F37920" d="M462.9,66.6h-17.7V48.7h17.7V66.6z M461.3,29.5h-14.4l-4.8-110.9h23.5
							L461.3,29.5z"/>
						<path clip-path="url(#SVGID_10_)" fill="#F37920" d="M462.7,223.3H445v-20.1h17.7V223.3z M462.7,77.2v60l-4,49.1H449l-4-48.9
							V77.2H462.7z"/>
						<path clip-path="url(#SVGID_10_)" fill="#F37920" d="M383.2,363.7c1.6,0,3,0.3,4.4,0.9c1.4,0.6,2.6,1.4,3.6,2.4
							c1,1,1.8,2.2,2.4,3.5c0.6,1.4,0.9,2.8,0.9,4.3c0,1.6-0.3,3-0.9,4.4c-0.6,1.3-1.4,2.5-2.4,3.5c-1,1-2.2,1.8-3.6,2.4
							c-1.4,0.6-2.9,0.9-4.4,0.9c-1.6,0-3-0.3-4.4-0.9c-1.4-0.6-2.6-1.4-3.6-2.4c-1-1-1.8-2.1-2.4-3.5c-0.6-1.3-0.9-2.8-0.9-4.4
							c0-1.5,0.3-2.9,0.9-4.3c0.6-1.4,1.4-2.5,2.4-3.5c1-1,2.2-1.8,3.6-2.4C380.2,364,381.7,363.7,383.2,363.7 M380,346.8
							c-0.3-7.7-0.9-15.5-1.9-23.4c-0.9-7.9-1.9-15.7-3-23.4c-1-7.7-2-15.3-2.8-22.6c-0.8-7.4-1.2-14.4-1.2-20.9
							c0-2.6,0.4-4.9,1.1-6.9c0.7-2,1.6-3.8,2.7-5.2c1.1-1.4,2.4-2.5,3.9-3.2c1.4-0.7,2.9-1.1,4.5-1.1c3.5,0,6.4,1.5,8.8,4.4
							c2.3,2.9,3.5,6.9,3.5,12.1c0,6.6-0.4,13.6-1.3,20.9c-0.9,7.4-1.8,14.9-2.9,22.6c-1.1,7.7-2.1,15.5-3,23.4
							c-1,7.9-1.6,15.7-1.9,23.4H380z"/>
						<path clip-path="url(#SVGID_10_)" fill="#F37920" d="M462.9,386h-17.7v-17.8h17.7V386z M461.3,348.9h-14.4L442.1,238h23.5
							L461.3,348.9z"/>
						<path clip-path="url(#SVGID_10_)" fill="#F37920" d="M409.2,245.6c0-4.6,7.1-66.7,7.5-86.7c0-1.1,0.2-1.5,1.5-1.5h3.8
							c1.3,0,1.5,0.8,1.5,2.1c0.4,20.3,6.3,77.4,6.3,86.1c0,6.5-4.4,12.4-10,12.4C414,258,408.5,254.7,409.2,245.6"/>
						<path clip-path="url(#SVGID_10_)" fill="#F37920" d="M420,135.1c6.4,0,11.6-5.2,11.6-11.7c0-6.4-5.2-11.7-11.6-11.7
							c-6.4,0-11.6,5.2-11.6,11.7C408.4,129.8,413.6,135.1,420,135.1"/>
						<rect x="409.5" y="-9.6" clip-path="url(#SVGID_10_)" fill="#F37920" width="20.9" height="111.7"/>
						<path clip-path="url(#SVGID_10_)" fill="#F37920" d="M432.8-29.8c0,3.5-1.3,6.5-3.8,9c-2.5,2.5-5.5,3.8-9,3.8
							c-3.5,0-6.5-1.3-9-3.8c-2.5-2.5-3.8-5.6-3.8-9.1c0-3.6,1.3-6.7,3.8-9.2c2.5-2.5,5.5-3.7,9-3.7c3.6,0,6.7,1.2,9.1,3.7
							C431.6-36.6,432.8-33.5,432.8-29.8"/>
						<path clip-path="url(#SVGID_10_)" fill="#F37920" d="M606.9-14.7h-32.7v-32.8h32.7V-14.7z M606.9,100.4h-32.7V1.8h32.7V100.4z
							"/>
						<path clip-path="url(#SVGID_10_)" fill="#F37920" d="M577.7,244.8c0-3.4,1.1-14.7,3.3-34c2.2-19.3,4.2-38,5.8-56h7.8
							c1.5,18,3.3,36.7,5.5,56c2.2,19.3,3.3,30.6,3.3,34c0,3.8-1.2,7.1-3.6,9.7c-2.4,2.6-5.5,3.9-9.2,3.9c-3.7,0-6.8-1.3-9.2-3.9
							C578.9,252,577.7,248.7,577.7,244.8 M576.8,122.7c0-3.8,1.4-7,4.1-9.7c2.7-2.7,5.9-4,9.7-4c3.7,0,7,1.3,9.7,4
							c2.7,2.7,4.1,5.9,4.1,9.7c0,3.8-1.4,7-4.1,9.8c-2.7,2.7-5.9,4.1-9.7,4.1c-3.7,0-7-1.4-9.7-4.1
							C578.1,129.8,576.8,126.5,576.8,122.7"/>
						<path clip-path="url(#SVGID_10_)" fill="#F37920" d="M561.4-69c0,3.4-1.1,14.7-3.3,34c-2.2,19.3-4.2,38-5.8,56h-7.8
							c-1.5-18-3.3-36.7-5.5-56c-2.2-19.3-3.3-30.6-3.3-34c0-3.8,1.2-7.1,3.6-9.7c2.4-2.6,5.5-3.9,9.2-3.9c3.7,0,6.8,1.3,9.2,3.9
							C560.2-76.2,561.4-72.9,561.4-69 M562.3,53c0,3.8-1.4,7-4.1,9.7c-2.7,2.7-5.9,4-9.7,4c-3.7,0-7-1.3-9.7-4
							c-2.7-2.7-4.1-5.9-4.1-9.7c0-3.8,1.4-7,4.1-9.8c2.7-2.7,5.9-4.1,9.7-4.1c3.7,0,7,1.4,9.7,4.1C561,46,562.3,49.3,562.3,53"/>
						<path clip-path="url(#SVGID_10_)" fill="#F37920" d="M532.2,190.5h32.7v32.8h-32.7V190.5z M532.2,75.3h32.7V174h-32.7V75.3z"
							/>
						<path clip-path="url(#SVGID_10_)" fill="#F37920" d="M561.4,250.4c0,3.4-1.1,14.7-3.3,34c-2.2,19.3-4.2,38-5.8,56h-7.8
							c-1.5-18-3.3-36.7-5.5-56c-2.2-19.3-3.3-30.6-3.3-34c0-3.8,1.2-7.1,3.6-9.7c2.4-2.6,5.5-3.9,9.2-3.9c3.7,0,6.8,1.3,9.2,3.9
							C560.2,243.2,561.4,246.5,561.4,250.4 M562.3,372.5c0,3.8-1.4,7-4.1,9.7c-2.7,2.7-5.9,4-9.7,4c-3.7,0-7-1.3-9.7-4
							c-2.7-2.7-4.1-5.9-4.1-9.7s1.4-7,4.1-9.8c2.7-2.7,5.9-4.1,9.7-4.1c3.7,0,7,1.4,9.7,4.1C561,365.4,562.3,368.7,562.3,372.5"/>
						<polygon clip-path="url(#SVGID_10_)" fill="#F37920" points="511.9,0.6 485.2,0.6 477.8,102.1 519.5,102.1 						"/>
						<path clip-path="url(#SVGID_10_)" fill="#F37920" d="M498.9-10.6c9.7,0,17.5-7.9,17.5-17.7c0-9.8-7.8-17.7-17.5-17.7
							c-9.7,0-17.5,7.9-17.5,17.7C481.4-18.5,489.2-10.6,498.9-10.6"/>
						<polygon clip-path="url(#SVGID_10_)" fill="#F37920" points="520.7,258.5 477.2,258.5 477.2,224.8 485.6,157.2 512.5,157.2 
							520.7,224.8 						"/>
						<rect x="485.9" y="117.6" clip-path="url(#SVGID_10_)" fill="#F37920" width="26.1" height="26.3"/>
						<polygon clip-path="url(#SVGID_10_)" fill="#F37920" points="627.2,174.9 653.9,174.9 661.3,73.4 619.6,73.4 						"/>
						<path clip-path="url(#SVGID_10_)" fill="#F37920" d="M640.2,186.1c-9.7,0-17.5,7.9-17.5,17.7c0,9.8,7.8,17.7,17.5,17.7
							c9.7,0,17.5-7.9,17.5-17.7C657.7,194,649.9,186.1,640.2,186.1"/>
						<polygon clip-path="url(#SVGID_10_)" fill="#F37920" points="618.4,-82.8 661.9,-82.8 661.9,-49.1 653.5,18.6 626.6,18.6 
							618.4,-49.1 						"/>
						<rect x="627.1" y="31.9" clip-path="url(#SVGID_10_)" fill="#F37920" width="26.1" height="26.3"/>
						<polygon clip-path="url(#SVGID_10_)" fill="#F37920" points="618.4,236.7 661.9,236.7 661.9,270.4 653.5,338 626.6,338 
							618.4,270.4 						"/>
					</g>
				</g>
			</g>
		</g>
		<rect x="16.9" y="-504.9" clip-path="url(#SVGID_4_)" fill="#F37920" width="750" height="756"/>
		<g clip-path="url(#SVGID_4_)">
			<defs>
				<rect id="SVGID_11_" x="16.9" y="-504.9" width="750" height="756"/>
			</defs>
			<clipPath id="SVGID_12_">
				<use xlink:href="#SVGID_11_"  overflow="visible"/>
			</clipPath>
			<g opacity="0.4" clip-path="url(#SVGID_12_)">
				<g>
					<defs>
						<rect id="SVGID_13_" x="-402" y="-732.5" width="1644.2" height="1310.5"/>
					</defs>
					<clipPath id="SVGID_14_">
						<use xlink:href="#SVGID_13_"  overflow="visible"/>
					</clipPath>
					<path clip-path="url(#SVGID_14_)" fill="#FCB415" d="M315.7-448.9h29v29.2h-29V-448.9z M322.9-463.6l-7.2-58.5v-43.8h29v43.8
						l-7.2,58.5H322.9z"/>
					<path clip-path="url(#SVGID_14_)" fill="#FCB415" d="M409.6-419.8h-17.7v-20.1h17.7V-419.8z M409.6-565.8v60l-4,49.1h-9.8
						l-4-48.9v-60.2H409.6z"/>
					<path clip-path="url(#SVGID_14_)" fill="#FCB415" d="M330.1-279.4c1.6,0,3,0.3,4.4,0.9c1.4,0.6,2.6,1.4,3.6,2.4
						c1,1,1.8,2.2,2.4,3.5c0.6,1.4,0.9,2.8,0.9,4.3c0,1.6-0.3,3-0.9,4.4c-0.6,1.3-1.4,2.5-2.4,3.5c-1,1-2.2,1.8-3.6,2.4
						c-1.4,0.6-2.9,0.9-4.4,0.9c-1.6,0-3-0.3-4.4-0.9c-1.4-0.6-2.6-1.4-3.6-2.4c-1-1-1.8-2.1-2.4-3.5c-0.6-1.3-0.9-2.8-0.9-4.4
						c0-1.5,0.3-2.9,0.9-4.3c0.6-1.4,1.4-2.5,2.4-3.5c1-1,2.2-1.8,3.6-2.4C327.1-279.1,328.6-279.4,330.1-279.4 M326.9-296.2
						c-0.3-7.7-0.9-15.5-1.9-23.4c-0.9-7.9-1.9-15.7-3-23.4c-1-7.7-2-15.3-2.8-22.6c-0.8-7.4-1.2-14.4-1.2-20.9
						c0-2.6,0.4-4.9,1.1-6.9c0.7-2,1.6-3.8,2.7-5.2c1.1-1.4,2.4-2.5,3.8-3.2c1.4-0.7,2.9-1.1,4.5-1.1c3.5,0,6.4,1.5,8.8,4.4
						c2.3,2.9,3.5,6.9,3.5,12.1c0,6.6-0.4,13.6-1.3,20.9c-0.9,7.4-1.8,14.9-2.9,22.6c-1.1,7.7-2.1,15.5-3,23.4
						c-1,7.9-1.6,15.7-1.9,23.4H326.9z"/>
					<path clip-path="url(#SVGID_14_)" fill="#FCB415" d="M315.7-129.5h29v29.2h-29V-129.5z M322.9-144.1l-7.2-58.5v-43.8h29v43.8
						l-7.2,58.5H322.9z"/>
					<path clip-path="url(#SVGID_14_)" fill="#FCB415" d="M392.1-257.1h17.7v-17.8h-17.7V-257.1z M389-405.1l4.8,110.9h14.4
						l4.3-110.9H389z"/>
					<path clip-path="url(#SVGID_14_)" fill="#FCB415" d="M409.6-100.4h-17.7v-20.1h17.7V-100.4z M409.6-246.4v60l-4,49.1h-9.8
						l-4-48.9v-60.2H409.6z"/>
					<path clip-path="url(#SVGID_14_)" fill="#FCB415" d="M356.1-77.6c0-4.6,7.1-66.7,7.5-86.7c0-1.1,0.2-1.5,1.5-1.5h3.8
						c1.3,0,1.5,0.8,1.5,2.1c0.4,20.3,6.3,77.4,6.3,86.1c0,6.5-4.4,12.4-10,12.4C360.9-65.1,355.4-68.5,356.1-77.6"/>
					<path clip-path="url(#SVGID_14_)" fill="#FCB415" d="M366.9-188.1c6.4,0,11.6-5.2,11.6-11.7c0-6.4-5.2-11.7-11.6-11.7
						c-6.4,0-11.6,5.2-11.6,11.7C355.3-193.3,360.5-188.1,366.9-188.1"/>
					<path clip-path="url(#SVGID_14_)" fill="#FCB415" d="M356.1-397.5c0-4.6,7.1-66.7,7.5-86.7c0-1.1,0.2-1.5,1.5-1.5h3.8
						c1.3,0,1.5,0.8,1.5,2.1c0.4,20.3,6.3,77.4,6.3,86.1c0,6.5-4.4,12.4-10,12.4C360.9-385,355.4-388.4,356.1-397.5"/>
					<rect x="356.4" y="-333.2" clip-path="url(#SVGID_14_)" fill="#FCB415" width="20.9" height="111.7"/>
					<path clip-path="url(#SVGID_14_)" fill="#FCB415" d="M379.7-353.5c0,3.5-1.3,6.5-3.8,9c-2.5,2.5-5.5,3.8-9,3.8
						c-3.5,0-6.5-1.3-9.1-3.8c-2.5-2.5-3.8-5.6-3.8-9.1c0-3.6,1.3-6.7,3.8-9.2c2.5-2.5,5.5-3.7,9.1-3.7c3.6,0,6.7,1.2,9.1,3.7
						C378.5-360.3,379.7-357.2,379.7-353.5"/>
					<path clip-path="url(#SVGID_14_)" fill="#FCB415" d="M219.9-398.3c0-3.4,1.1-14.7,3.3-34c2.2-19.3,4.2-38,5.8-56h7.8
						c1.5,18,3.3,36.7,5.5,56c2.2,19.3,3.3,30.6,3.3,34c0,3.8-1.2,7.1-3.6,9.7c-2.4,2.6-5.5,3.9-9.2,3.9c-3.7,0-6.8-1.3-9.2-3.9
						C221.1-391.1,219.9-394.3,219.9-398.3 M219-520.3c0-3.8,1.4-7,4.1-9.7c2.7-2.7,5.9-4,9.7-4c3.7,0,7,1.3,9.7,4
						c2.7,2.7,4.1,5.9,4.1,9.7c0,3.8-1.4,7-4.1,9.8c-2.7,2.7-5.9,4.1-9.7,4.1c-3.7,0-7-1.4-9.7-4.1C220.4-513.3,219-516.6,219-520.3
						"/>
					<path clip-path="url(#SVGID_14_)" fill="#FCB415" d="M174.4-452.6h32.7v32.8h-32.7V-452.6z M174.4-567.7h32.7v98.7h-32.7
						V-567.7z"/>
					<path clip-path="url(#SVGID_14_)" fill="#FCB415" d="M249.1-338.4h-32.7v-32.8h32.7V-338.4z M249.1-223.2h-32.7v-98.7h32.7
						V-223.2z"/>
					<path clip-path="url(#SVGID_14_)" fill="#FCB415" d="M219.9-78.8c0-3.4,1.1-14.7,3.3-34c2.2-19.3,4.2-38,5.8-56h7.8
						c1.5,18,3.3,36.7,5.5,56c2.2,19.3,3.3,30.6,3.3,34c0,3.8-1.2,7.1-3.6,9.7c-2.4,2.6-5.5,3.9-9.2,3.9c-3.7,0-6.8-1.3-9.2-3.9
						C221.1-71.7,219.9-74.9,219.9-78.8 M219-200.9c0-3.8,1.4-7,4.1-9.7c2.7-2.7,5.9-4,9.7-4c3.7,0,7,1.3,9.7,4
						c2.7,2.7,4.1,5.9,4.1,9.7c0,3.8-1.4,7-4.1,9.8c-2.7,2.7-5.9,4.1-9.7,4.1c-3.7,0-7-1.4-9.7-4.1C220.4-193.9,219-197.1,219-200.9
						"/>
					<path clip-path="url(#SVGID_14_)" fill="#FCB415" d="M203.6-392.7c0,3.4-1.1,14.7-3.3,34c-2.2,19.3-4.2,38-5.8,56h-7.8
						c-1.5-18-3.3-36.7-5.5-56c-2.2-19.3-3.3-30.6-3.3-34c0-3.8,1.2-7.1,3.6-9.7c2.4-2.6,5.5-3.9,9.2-3.9c3.7,0,6.8,1.3,9.2,3.9
						C202.4-399.8,203.6-396.6,203.6-392.7 M204.5-270.6c0,3.8-1.4,7-4.1,9.7c-2.7,2.7-5.9,4-9.7,4c-3.7,0-7-1.3-9.7-4
						c-2.7-2.7-4.1-5.9-4.1-9.7s1.4-7,4.1-9.8c2.7-2.7,5.9-4.1,9.7-4.1c3.7,0,7,1.4,9.7,4.1C203.2-277.6,204.5-274.4,204.5-270.6"/>
					<path clip-path="url(#SVGID_14_)" fill="#FCB415" d="M174.4-133.1h32.7v32.8h-32.7V-133.1z M174.4-248.3h32.7v98.7h-32.7
						V-248.3z"/>
					<polygon clip-path="url(#SVGID_14_)" fill="#FCB415" points="154.1,-322.7 127.4,-322.7 120.1,-221.3 161.7,-221.3 					"/>
					<path clip-path="url(#SVGID_14_)" fill="#FCB415" d="M141.1-334c9.7,0,17.5-7.9,17.5-17.7c0-9.8-7.8-17.7-17.5-17.7
						c-9.7,0-17.5,7.9-17.5,17.7C123.6-341.9,131.4-334,141.1-334"/>
					<polygon clip-path="url(#SVGID_14_)" fill="#FCB415" points="127.8,-166.5 119.4,-98.8 119.4,-65.1 162.9,-65.1 162.9,-98.8 
						154.7,-166.5 					"/>
					<rect x="128.1" y="-206.1" clip-path="url(#SVGID_14_)" fill="#FCB415" width="26.1" height="26.3"/>
					<polygon clip-path="url(#SVGID_14_)" fill="#FCB415" points="162.9,-384.5 119.4,-384.5 119.4,-418.2 127.8,-485.9 
						154.7,-485.9 162.9,-418.2 					"/>
					<rect x="128.1" y="-525.5" clip-path="url(#SVGID_14_)" fill="#FCB415" width="26.1" height="26.3"/>
					<polygon clip-path="url(#SVGID_14_)" fill="#FCB415" points="269.4,-148.5 296.1,-148.5 303.5,-249.9 261.8,-249.9 					"/>
					<path clip-path="url(#SVGID_14_)" fill="#FCB415" d="M282.4-137.3c-9.7,0-17.5,7.9-17.5,17.7c0,9.8,7.8,17.7,17.5,17.7
						c9.7,0,17.5-7.9,17.5-17.7C299.9-129.3,292.1-137.3,282.4-137.3"/>
					<polygon clip-path="url(#SVGID_14_)" fill="#FCB415" points="269.4,-468.2 296.1,-468.2 303.5,-569.6 261.8,-569.6 					"/>
					<path clip-path="url(#SVGID_14_)" fill="#FCB415" d="M282.4-456.9c-9.7,0-17.5,7.9-17.5,17.7c0,9.8,7.8,17.7,17.5,17.7
						c9.7,0,17.5-7.9,17.5-17.7C299.9-449,292.1-456.9,282.4-456.9"/>
					<polygon clip-path="url(#SVGID_14_)" fill="#FCB415" points="260.6,-406.4 304.2,-406.4 304.2,-372.7 295.8,-305 268.8,-305 
						260.6,-372.7 					"/>
					<rect x="269.3" y="-291.7" clip-path="url(#SVGID_14_)" fill="#FCB415" width="26.1" height="26.3"/>
					<path clip-path="url(#SVGID_14_)" fill="#FCB415" d="M93.4-199.3c-1.6,0-3-0.3-4.4-0.9c-1.4-0.6-2.6-1.4-3.6-2.4
						c-1-1-1.8-2.2-2.4-3.5c-0.6-1.4-0.9-2.8-0.9-4.3c0-1.6,0.3-3,0.9-4.4c0.6-1.3,1.4-2.5,2.4-3.5c1-1,2.2-1.8,3.6-2.4
						c1.4-0.6,2.9-0.9,4.4-0.9c1.6,0,3,0.3,4.4,0.9c1.4,0.6,2.6,1.4,3.6,2.4c1,1,1.8,2.1,2.4,3.5c0.6,1.3,0.9,2.8,0.9,4.4
						c0,1.5-0.3,2.9-0.9,4.3c-0.6,1.4-1.4,2.5-2.4,3.5c-1,1-2.2,1.8-3.6,2.4C96.4-199.6,94.9-199.3,93.4-199.3 M96.7-182.5
						c0.3,7.7,0.9,15.5,1.9,23.4c0.9,7.9,1.9,15.7,3,23.4c1,7.7,2,15.3,2.8,22.6c0.8,7.4,1.2,14.4,1.2,20.9c0,2.6-0.4,4.9-1.1,6.9
						c-0.7,2-1.6,3.8-2.7,5.2c-1.1,1.4-2.4,2.5-3.9,3.2c-1.4,0.7-2.9,1.1-4.5,1.1c-3.5,0-6.4-1.5-8.8-4.4c-2.3-2.9-3.5-6.9-3.5-12.1
						c0-6.6,0.4-13.6,1.3-20.9c0.9-7.4,1.8-14.9,2.9-22.6c1.1-7.7,2.1-15.5,3-23.4c1-7.9,1.6-15.7,1.9-23.4H96.7z"/>
					<path clip-path="url(#SVGID_14_)" fill="#FCB415" d="M107.8-348.7h-29v-29.2h29V-348.7z M100.6-334.1l7.2,58.5v43.8h-29v-43.8
						l7.2-58.5H100.6z"/>
					<path clip-path="url(#SVGID_14_)" fill="#FCB415" d="M46.2-257.1h20.9v111.7H46.2V-257.1z M43.8-123.8c0-3.5,1.3-6.5,3.8-9
						c2.5-2.5,5.5-3.8,9-3.8c3.5,0,6.5,1.3,9.1,3.8c2.5,2.5,3.8,5.6,3.8,9.1c0,3.6-1.3,6.7-3.8,9.2c-2.5,2.5-5.5,3.7-9.1,3.7
						c-3.6,0-6.7-1.2-9.1-3.7C45.1-117,43.8-120.1,43.8-123.8"/>
					<path clip-path="url(#SVGID_14_)" fill="#FCB415" d="M67.4-400.6c0,4.6-7.1,66.7-7.5,86.7c0,1.1-0.2,1.5-1.5,1.5h-3.8
						c-1.3,0-1.5-0.8-1.5-2.1c-0.4-20.3-6.3-77.4-6.3-86.1c0-6.5,4.4-12.4,10-12.4C62.6-413.1,68.1-409.7,67.4-400.6 M44.2-278.9
						c0-3.6,2.7-11.8,13.2-11.8c5.9,0,11.7,4.9,11.7,12.7c0,7-5.4,11.6-11.7,11.6C52.8-266.4,44.2-269,44.2-278.9"/>
					<path clip-path="url(#SVGID_14_)" fill="#FCB415" d="M13.8-221.6h17.7v17.8H13.8V-221.6z M15.3-184.5h14.4l4.8,110.9H11
						L15.3-184.5z"/>
					<path clip-path="url(#SVGID_14_)" fill="#FCB415" d="M13.9-378.3h17.7v20.1H13.9V-378.3z M13.9-232.3v-60l4-49.1h9.8l4,48.9
						v60.2H13.9z"/>
					<path clip-path="url(#SVGID_14_)" fill="#FCB415" d="M93.4-518.7c-1.6,0-3-0.3-4.4-0.9c-1.4-0.6-2.6-1.4-3.6-2.4
						c-1-1-1.8-2.2-2.4-3.5c-0.6-1.4-0.9-2.8-0.9-4.3c0-1.6,0.3-3,0.9-4.4c0.6-1.3,1.4-2.5,2.4-3.5c1-1,2.2-1.8,3.6-2.4
						c1.4-0.6,2.9-0.9,4.4-0.9c1.6,0,3,0.3,4.4,0.9c1.4,0.6,2.6,1.4,3.6,2.4c1,1,1.8,2.1,2.4,3.5c0.6,1.3,0.9,2.8,0.9,4.4
						c0,1.5-0.3,2.9-0.9,4.3c-0.6,1.4-1.4,2.5-2.4,3.5c-1,1-2.2,1.8-3.6,2.4C96.4-519,94.9-518.7,93.4-518.7 M96.7-501.9
						c0.3,7.7,0.9,15.5,1.9,23.4c0.9,7.9,1.9,15.7,3,23.4c1,7.7,2,15.3,2.8,22.6c0.8,7.4,1.2,14.4,1.2,20.9c0,2.6-0.4,4.9-1.1,6.9
						c-0.7,2-1.6,3.8-2.7,5.2c-1.1,1.4-2.4,2.5-3.9,3.2c-1.4,0.7-2.9,1.1-4.5,1.1c-3.5,0-6.4-1.5-8.8-4.4c-2.3-2.9-3.5-6.9-3.5-12.1
						c0-6.6,0.4-13.6,1.3-20.9c0.9-7.4,1.8-14.9,2.9-22.6c1.1-7.7,2.1-15.5,3-23.4c1-7.9,1.6-15.7,1.9-23.4H96.7z"/>
					<path clip-path="url(#SVGID_14_)" fill="#FCB415" d="M46.2-576.6h20.9v111.7H46.2V-576.6z M43.8-443.3c0-3.5,1.3-6.5,3.8-9
						c2.5-2.5,5.5-3.8,9-3.8c3.5,0,6.5,1.3,9.1,3.8c2.5,2.5,3.8,5.6,3.8,9.1c0,3.6-1.3,6.7-3.8,9.2c-2.5,2.5-5.5,3.7-9.1,3.7
						c-3.6,0-6.7-1.2-9.1-3.7C45.1-436.5,43.8-439.6,43.8-443.3"/>
					<path clip-path="url(#SVGID_14_)" fill="#FCB415" d="M13.8-541h17.7v17.8H13.8V-541z M15.3-503.9h14.4L34.5-393H11L15.3-503.9z
						"/>
					<path clip-path="url(#SVGID_14_)" fill="#FCB415" d="M330.1,44.2c1.6,0,3,0.3,4.4,0.9c1.4,0.6,2.6,1.4,3.6,2.4
						c1,1,1.8,2.2,2.4,3.5c0.6,1.4,0.9,2.8,0.9,4.3c0,1.6-0.3,3-0.9,4.4c-0.6,1.3-1.4,2.5-2.4,3.5c-1,1-2.2,1.8-3.6,2.4
						c-1.4,0.6-2.9,0.9-4.4,0.9c-1.6,0-3-0.3-4.4-0.9c-1.4-0.6-2.6-1.4-3.6-2.4c-1-1-1.8-2.1-2.4-3.5c-0.6-1.3-0.9-2.8-0.9-4.4
						c0-1.5,0.3-2.9,0.9-4.3c0.6-1.4,1.4-2.5,2.4-3.5c1-1,2.2-1.8,3.6-2.4C327.1,44.5,328.6,44.2,330.1,44.2 M326.9,27.4
						c-0.3-7.7-0.9-15.5-1.9-23.4c-0.9-7.9-1.9-15.7-3-23.4c-1-7.7-2-15.3-2.8-22.6c-0.8-7.4-1.2-14.4-1.2-20.9
						c0-2.6,0.4-4.9,1.1-6.9c0.7-2,1.6-3.8,2.7-5.2c1.1-1.4,2.4-2.5,3.8-3.2c1.4-0.7,2.9-1.1,4.5-1.1c3.5,0,6.4,1.5,8.8,4.4
						c2.3,2.9,3.5,6.9,3.5,12.1c0,6.6-0.4,13.6-1.3,20.9c-0.9,7.4-1.8,14.9-2.9,22.6c-1.1,7.7-2.1,15.5-3,23.4
						c-1,7.9-1.6,15.7-1.9,23.4H326.9z"/>
					<path clip-path="url(#SVGID_14_)" fill="#FCB415" d="M315.7,194.1h29v29.2h-29V194.1z M322.9,179.5l-7.2-58.5V77.2h29V121
						l-7.2,58.5H322.9z"/>
					<path clip-path="url(#SVGID_14_)" fill="#FCB415" d="M392.1,66.6h17.7V48.7h-17.7V66.6z M389-81.5l4.8,110.9h14.4l4.3-110.9
						H389z"/>
					<path clip-path="url(#SVGID_14_)" fill="#FCB415" d="M409.6,223.3h-17.7v-20.1h17.7V223.3z M409.6,77.2v60l-4,49.1h-9.8
						l-4-48.9V77.2H409.6z"/>
					<path clip-path="url(#SVGID_14_)" fill="#FCB415" d="M330.1,363.7c1.6,0,3,0.3,4.4,0.9c1.4,0.6,2.6,1.4,3.6,2.4
						c1,1,1.8,2.2,2.4,3.5c0.6,1.4,0.9,2.8,0.9,4.3c0,1.6-0.3,3-0.9,4.4c-0.6,1.3-1.4,2.5-2.4,3.5c-1,1-2.2,1.8-3.6,2.4
						c-1.4,0.6-2.9,0.9-4.4,0.9c-1.6,0-3-0.3-4.4-0.9c-1.4-0.6-2.6-1.4-3.6-2.4c-1-1-1.8-2.1-2.4-3.5c-0.6-1.3-0.9-2.8-0.9-4.4
						c0-1.5,0.3-2.9,0.9-4.3c0.6-1.4,1.4-2.5,2.4-3.5c1-1,2.2-1.8,3.6-2.4C327.1,364,328.6,363.7,330.1,363.7 M326.9,346.8
						c-0.3-7.7-0.9-15.5-1.9-23.4c-0.9-7.9-1.9-15.7-3-23.4c-1-7.7-2-15.3-2.8-22.6c-0.8-7.4-1.2-14.4-1.2-20.9
						c0-2.6,0.4-4.9,1.1-6.9c0.7-2,1.6-3.8,2.7-5.2c1.1-1.4,2.4-2.5,3.8-3.2c1.4-0.7,2.9-1.1,4.5-1.1c3.5,0,6.4,1.5,8.8,4.4
						c2.3,2.9,3.5,6.9,3.5,12.1c0,6.6-0.4,13.6-1.3,20.9c-0.9,7.4-1.8,14.9-2.9,22.6c-1.1,7.7-2.1,15.5-3,23.4
						c-1,7.9-1.6,15.7-1.9,23.4H326.9z"/>
					<path clip-path="url(#SVGID_14_)" fill="#FCB415" d="M392.1,386h17.7v-17.8h-17.7V386z M389,238l4.8,110.9h14.4l4.3-110.9H389z
						"/>
					<path clip-path="url(#SVGID_14_)" fill="#FCB415" d="M356.1,245.6c0-4.6,7.1-66.7,7.5-86.7c0-1.1,0.2-1.5,1.5-1.5h3.8
						c1.3,0,1.5,0.8,1.5,2.1c0.4,20.3,6.3,77.4,6.3,86.1c0,6.5-4.4,12.4-10,12.4C360.9,258,355.4,254.7,356.1,245.6"/>
					<path clip-path="url(#SVGID_14_)" fill="#FCB415" d="M366.9,135.1c6.4,0,11.6-5.2,11.6-11.7c0-6.4-5.2-11.7-11.6-11.7
						c-6.4,0-11.6,5.2-11.6,11.7C355.3,129.8,360.5,135.1,366.9,135.1"/>
					<rect x="356.4" y="-9.6" clip-path="url(#SVGID_14_)" fill="#FCB415" width="20.9" height="111.7"/>
					<path clip-path="url(#SVGID_14_)" fill="#FCB415" d="M379.7-29.8c0,3.5-1.3,6.5-3.8,9c-2.5,2.5-5.5,3.8-9,3.8
						c-3.5,0-6.5-1.3-9.1-3.8c-2.5-2.5-3.8-5.6-3.8-9.1c0-3.6,1.3-6.7,3.8-9.2c2.5-2.5,5.5-3.7,9.1-3.7c3.6,0,6.7,1.2,9.1,3.7
						C378.5-36.6,379.7-33.5,379.7-29.8"/>
					<path clip-path="url(#SVGID_14_)" fill="#FCB415" d="M249.1-14.7h-32.7v-32.8h32.7V-14.7z M249.1,100.4h-32.7V1.8h32.7V100.4z"
						/>
					<path clip-path="url(#SVGID_14_)" fill="#FCB415" d="M219.9,244.8c0-3.4,1.1-14.7,3.3-34c2.2-19.3,4.2-38,5.8-56h7.8
						c1.5,18,3.3,36.7,5.5,56c2.2,19.3,3.3,30.6,3.3,34c0,3.8-1.2,7.1-3.6,9.7c-2.4,2.6-5.5,3.9-9.2,3.9c-3.7,0-6.8-1.3-9.2-3.9
						C221.1,252,219.9,248.7,219.9,244.8 M219,122.7c0-3.8,1.4-7,4.1-9.7c2.7-2.7,5.9-4,9.7-4c3.7,0,7,1.3,9.7,4
						c2.7,2.7,4.1,5.9,4.1,9.7c0,3.8-1.4,7-4.1,9.8c-2.7,2.7-5.9,4.1-9.7,4.1c-3.7,0-7-1.4-9.7-4.1C220.4,129.8,219,126.5,219,122.7
						"/>
					<path clip-path="url(#SVGID_14_)" fill="#FCB415" d="M203.6-69c0,3.4-1.1,14.7-3.3,34c-2.2,19.3-4.2,38-5.8,56h-7.8
						c-1.5-18-3.3-36.7-5.5-56c-2.2-19.3-3.3-30.6-3.3-34c0-3.8,1.2-7.1,3.6-9.7c2.4-2.6,5.5-3.9,9.2-3.9c3.7,0,6.8,1.3,9.2,3.9
						C202.4-76.2,203.6-72.9,203.6-69 M204.5,53c0,3.8-1.4,7-4.1,9.7c-2.7,2.7-5.9,4-9.7,4c-3.7,0-7-1.3-9.7-4
						c-2.7-2.7-4.1-5.9-4.1-9.7c0-3.8,1.4-7,4.1-9.8c2.7-2.7,5.9-4.1,9.7-4.1c3.7,0,7,1.4,9.7,4.1C203.2,46,204.5,49.3,204.5,53"/>
					<path clip-path="url(#SVGID_14_)" fill="#FCB415" d="M174.4,190.5h32.7v32.8h-32.7V190.5z M174.4,75.3h32.7V174h-32.7V75.3z"/>
					<path clip-path="url(#SVGID_14_)" fill="#FCB415" d="M203.6,250.4c0,3.4-1.1,14.7-3.3,34c-2.2,19.3-4.2,38-5.8,56h-7.8
						c-1.5-18-3.3-36.7-5.5-56c-2.2-19.3-3.3-30.6-3.3-34c0-3.8,1.2-7.1,3.6-9.7c2.4-2.6,5.5-3.9,9.2-3.9c3.7,0,6.8,1.3,9.2,3.9
						C202.4,243.2,203.6,246.5,203.6,250.4 M204.5,372.5c0,3.8-1.4,7-4.1,9.7c-2.7,2.7-5.9,4-9.7,4c-3.7,0-7-1.3-9.7-4
						c-2.7-2.7-4.1-5.9-4.1-9.7s1.4-7,4.1-9.8c2.7-2.7,5.9-4.1,9.7-4.1c3.7,0,7,1.4,9.7,4.1C203.2,365.4,204.5,368.7,204.5,372.5"/>
					<polygon clip-path="url(#SVGID_14_)" fill="#FCB415" points="154.1,0.6 127.4,0.6 120.1,102.1 161.7,102.1 					"/>
					<path clip-path="url(#SVGID_14_)" fill="#FCB415" d="M141.1-10.6c9.7,0,17.5-7.9,17.5-17.7c0-9.8-7.8-17.7-17.5-17.7
						c-9.7,0-17.5,7.9-17.5,17.7C123.6-18.5,131.4-10.6,141.1-10.6"/>
					<polygon clip-path="url(#SVGID_14_)" fill="#FCB415" points="162.9,258.5 119.4,258.5 119.4,224.8 127.8,157.2 154.7,157.2 
						162.9,224.8 					"/>
					<rect x="128.1" y="117.6" clip-path="url(#SVGID_14_)" fill="#FCB415" width="26.1" height="26.3"/>
					<polygon clip-path="url(#SVGID_14_)" fill="#FCB415" points="269.4,174.9 296.1,174.9 303.5,73.4 261.8,73.4 					"/>
					<path clip-path="url(#SVGID_14_)" fill="#FCB415" d="M282.4,186.1c-9.7,0-17.5,7.9-17.5,17.7c0,9.8,7.8,17.7,17.5,17.7
						c9.7,0,17.5-7.9,17.5-17.7C299.9,194,292.1,186.1,282.4,186.1"/>
					<polygon clip-path="url(#SVGID_14_)" fill="#FCB415" points="260.6,-82.8 304.2,-82.8 304.2,-49.1 295.8,18.6 268.8,18.6 
						260.6,-49.1 					"/>
					<rect x="269.3" y="31.9" clip-path="url(#SVGID_14_)" fill="#FCB415" width="26.1" height="26.3"/>
					<polygon clip-path="url(#SVGID_14_)" fill="#FCB415" points="260.6,236.7 304.2,236.7 304.2,270.4 295.8,338 268.8,338 
						260.6,270.4 					"/>
					<path clip-path="url(#SVGID_14_)" fill="#FCB415" d="M67.4,242.4c0,4.6-7.1,66.7-7.5,86.7c0,1.1-0.2,1.5-1.5,1.5h-3.8
						c-1.3,0-1.5-0.8-1.5-2.1c-0.4-20.3-6.3-77.4-6.3-86.1c0-6.5,4.4-12.4,10-12.4C62.6,230,68.1,233.4,67.4,242.4 M44.2,364.2
						c0-3.6,2.7-11.8,13.2-11.8c5.9,0,11.7,4.9,11.7,12.7c0,7-5.4,11.6-11.7,11.6C52.8,376.6,44.2,374.1,44.2,364.2"/>
					<path clip-path="url(#SVGID_14_)" fill="#FCB415" d="M93.4,124.3c-1.6,0-3-0.3-4.4-0.9c-1.4-0.6-2.6-1.4-3.6-2.4
						c-1-1-1.8-2.2-2.4-3.5c-0.6-1.4-0.9-2.8-0.9-4.3c0-1.6,0.3-3,0.9-4.4c0.6-1.3,1.4-2.5,2.4-3.5c1-1,2.2-1.8,3.6-2.4
						c1.4-0.6,2.9-0.9,4.4-0.9c1.6,0,3,0.3,4.4,0.9c1.4,0.6,2.6,1.4,3.6,2.4c1,1,1.8,2.1,2.4,3.5c0.6,1.3,0.9,2.8,0.9,4.4
						c0,1.5-0.3,2.9-0.9,4.3c-0.6,1.4-1.4,2.5-2.4,3.5c-1,1-2.2,1.8-3.6,2.4C96.4,124.1,94.9,124.3,93.4,124.3 M96.7,141.2
						c0.3,7.7,0.9,15.5,1.9,23.4c0.9,7.9,1.9,15.7,3,23.4c1,7.7,2,15.3,2.8,22.6c0.8,7.4,1.2,14.4,1.2,20.9c0,2.6-0.4,4.9-1.1,6.9
						c-0.7,2-1.6,3.8-2.7,5.2c-1.1,1.4-2.4,2.5-3.9,3.2c-1.4,0.7-2.9,1.1-4.5,1.1c-3.5,0-6.4-1.5-8.8-4.4c-2.3-2.9-3.5-6.9-3.5-12.1
						c0-6.6,0.4-13.6,1.3-20.9c0.9-7.4,1.8-14.9,2.9-22.6c1.1-7.7,2.1-15.5,3-23.4c1-7.9,1.6-15.7,1.9-23.4H96.7z"/>
					<path clip-path="url(#SVGID_14_)" fill="#FCB415" d="M107.8-25.1h-29v-29.2h29V-25.1z M100.6-10.4l7.2,58.5v43.8h-29V48
						l7.2-58.5H100.6z"/>
					<path clip-path="url(#SVGID_14_)" fill="#FCB415" d="M46.2,66.5h20.9v111.7H46.2V66.5z M43.8,199.8c0-3.5,1.3-6.5,3.8-9
						c2.5-2.5,5.5-3.8,9-3.8c3.5,0,6.5,1.3,9.1,3.8c2.5,2.5,3.8,5.6,3.8,9.1c0,3.6-1.3,6.7-3.8,9.2c-2.5,2.5-5.5,3.7-9.1,3.7
						c-3.6,0-6.7-1.2-9.1-3.7C45.1,206.6,43.8,203.5,43.8,199.8"/>
					<path clip-path="url(#SVGID_14_)" fill="#FCB415" d="M67.4-77c0,4.6-7.1,66.7-7.5,86.7c0,1.1-0.2,1.5-1.5,1.5h-3.8
						c-1.3,0-1.5-0.8-1.5-2.1c-0.4-20.3-6.3-77.4-6.3-86.1c0-6.5,4.4-12.4,10-12.4C62.6-89.5,68.1-86.1,67.4-77 M44.2,44.7
						c0-3.6,2.7-11.8,13.2-11.8c5.9,0,11.7,4.9,11.7,12.7c0,7-5.4,11.6-11.7,11.6C52.8,57.2,44.2,54.7,44.2,44.7"/>
					<path clip-path="url(#SVGID_14_)" fill="#FCB415" d="M13.8,102h17.7v17.8H13.8V102z M15.3,139.1h14.4l4.8,110.9H11L15.3,139.1z
						"/>
					<path clip-path="url(#SVGID_14_)" fill="#FCB415" d="M13.9-54.7h17.7v20.1H13.9V-54.7z M13.9,91.4v-60l4-49.1h9.8l4,48.9v60.2
						H13.9z"/>
					<path clip-path="url(#SVGID_14_)" fill="#FCB415" d="M746.8,124.8c-1.6,0-3-0.3-4.4-0.9c-1.4-0.6-2.6-1.4-3.6-2.4
						c-1-1-1.8-2.2-2.4-3.5c-0.6-1.4-0.9-2.8-0.9-4.3c0-1.6,0.3-3,0.9-4.4c0.6-1.3,1.4-2.5,2.4-3.5c1-1,2.2-1.8,3.6-2.4
						c1.4-0.6,2.9-0.9,4.4-0.9c1.6,0,3,0.3,4.4,0.9c1.4,0.6,2.6,1.4,3.6,2.4c1,1,1.8,2.1,2.4,3.5c0.6,1.3,0.9,2.8,0.9,4.4
						c0,1.5-0.3,2.9-0.9,4.3c-0.6,1.4-1.4,2.5-2.4,3.5c-1,1-2.2,1.8-3.6,2.4C749.8,124.5,748.3,124.8,746.8,124.8 M749.9,141.7
						c0.3,7.7,1,15.5,1.9,23.4c1,7.9,2,15.7,3,23.4c1,7.7,2,15.3,2.9,22.6c0.9,7.4,1.3,14.4,1.3,20.9c0,5.2-1.2,9.2-3.5,12.1
						c-2.3,2.9-5.3,4.4-8.8,4.4c-1.6,0-3.1-0.4-4.5-1.1c-1.4-0.7-2.7-1.8-3.8-3.2c-1.1-1.4-2-3.1-2.7-5.2c-0.7-2-1.1-4.4-1.1-6.9
						c0-6.6,0.4-13.6,1.2-20.9c0.8-7.4,1.8-14.9,2.8-22.6c1.1-7.7,2-15.5,3-23.4c0.9-7.9,1.6-15.7,1.9-23.4H749.9z"/>
					<path clip-path="url(#SVGID_14_)" fill="#FCB415" d="M732.4-53.8h29v29.2h-29V-53.8z M754.1-10l7.2,58.5v43.8h-29V48.5
						l7.2-58.5H754.1z"/>
					<path clip-path="url(#SVGID_14_)" fill="#FCB415" d="M442.1,124.8c-1.6,0-3-0.3-4.4-0.9c-1.4-0.6-2.6-1.4-3.6-2.4
						c-1-1-1.8-2.2-2.4-3.5c-0.6-1.4-0.9-2.8-0.9-4.3c0-1.6,0.3-3,0.9-4.4c0.6-1.3,1.4-2.5,2.4-3.5c1-1,2.2-1.8,3.6-2.4
						c1.4-0.6,2.9-0.9,4.4-0.9c1.6,0,3,0.3,4.4,0.9c1.4,0.6,2.6,1.4,3.6,2.4c1,1,1.8,2.1,2.4,3.5c0.6,1.3,0.9,2.8,0.9,4.4
						c0,1.5-0.3,2.9-0.9,4.3c-0.6,1.4-1.4,2.5-2.4,3.5c-1,1-2.2,1.8-3.6,2.4C445.1,124.5,443.6,124.8,442.1,124.8 M445.2,141.7
						c0.3,7.7,1,15.5,1.9,23.4c1,7.9,2,15.7,3,23.4c1,7.7,2,15.3,2.9,22.6c0.9,7.4,1.3,14.4,1.3,20.9c0,5.2-1.2,9.2-3.5,12.1
						c-2.3,2.9-5.3,4.4-8.8,4.4c-1.6,0-3.1-0.4-4.5-1.1c-1.4-0.7-2.7-1.8-3.9-3.2c-1.1-1.4-2-3.1-2.7-5.2c-0.7-2-1.1-4.4-1.1-6.9
						c0-6.6,0.4-13.6,1.2-20.9c0.8-7.4,1.7-14.9,2.8-22.6c1.1-7.7,2-15.5,3-23.4c0.9-7.9,1.6-15.7,1.9-23.4H445.2z"/>
					<path clip-path="url(#SVGID_14_)" fill="#FCB415" d="M427.7-25.1h29v-29.2h-29V-25.1z M456.6,91.9V48l-7.2-58.5h-14.5L427.7,48
						v43.8H456.6z"/>
					<path clip-path="url(#SVGID_14_)" fill="#FCB415" d="M521.7,120.3H504v-17.8h17.7V120.3z M524.5,250.5H501l4.8-110.9h14.4
						L524.5,250.5z"/>
					<path clip-path="url(#SVGID_14_)" fill="#FCB415" d="M521.6-34.1h-17.7v-20.1h17.7V-34.1z M503.9,91.8V31.6l4-48.9h9.8l4,49.1
						v60H503.9z"/>
					<path clip-path="url(#SVGID_14_)" fill="#FCB415" d="M468-77c0,4.6,7.1,66.7,7.5,86.7c0,1.1,0.2,1.5,1.5,1.5h3.8
						c1.3,0,1.5-0.8,1.5-2.1c0.4-20.3,6.3-77.4,6.3-86.1c0-6.5-4.4-12.4-10-12.4C472.8-89.5,467.4-86.1,468-77"/>
					<path clip-path="url(#SVGID_14_)" fill="#FCB415" d="M478.8,33.5c6.4,0,11.6,5.2,11.6,11.7c0,6.4-5.2,11.7-11.6,11.7
						c-6.4,0-11.6-5.2-11.6-11.7C467.2,38.7,472.4,33.5,478.8,33.5"/>
					<path clip-path="url(#SVGID_14_)" fill="#FCB415" d="M468,242.9c0,4.6,7.1,66.7,7.5,86.7c0,1.1,0.2,1.5,1.5,1.5h3.8
						c1.3,0,1.5-0.8,1.5-2.1c0.4-20.3,6.3-77.4,6.3-86.1c0-6.5-4.4-12.4-10-12.4C472.8,230.5,467.4,233.8,468,242.9"/>
					<rect x="468.4" y="67" clip-path="url(#SVGID_14_)" fill="#FCB415" width="20.9" height="111.7"/>
					<path clip-path="url(#SVGID_14_)" fill="#FCB415" d="M491.7,198.9c0-3.5-1.3-6.5-3.8-9c-2.5-2.5-5.5-3.8-9-3.8
						c-3.5,0-6.5,1.3-9,3.8c-2.5,2.5-3.8,5.6-3.8,9.1c0,3.6,1.3,6.7,3.8,9.2c2.5,2.5,5.5,3.7,9,3.7c3.6,0,6.7-1.2,9.1-3.7
						C490.4,205.7,491.7,202.6,491.7,198.9"/>
					<path clip-path="url(#SVGID_14_)" fill="#FCB415" d="M636.6,243.7c0-3.9,1.2-7.2,3.6-9.8c2.4-2.6,5.5-3.9,9.2-3.9
						c3.7,0,6.8,1.3,9.2,3.9c2.4,2.6,3.6,5.9,3.6,9.7c0,3.4-1.1,14.7-3.3,34c-2.2,19.3-4,38-5.5,56h-7.8c-1.7-18-3.6-36.7-5.8-56
						C637.7,258.4,636.6,247.1,636.6,243.7 M635.7,365.8c0-3.8,1.4-7,4.1-9.8c2.7-2.7,5.9-4.1,9.7-4.1c3.7,0,7,1.4,9.7,4.1
						c2.7,2.7,4.1,6,4.1,9.8c0,3.8-1.4,7-4.1,9.7c-2.7,2.7-5.9,4-9.7,4c-3.7,0-7-1.3-9.7-4C637,372.8,635.7,369.6,635.7,365.8"/>
					<path clip-path="url(#SVGID_14_)" fill="#FCB415" d="M665.7,216.6h-32.7v-32.8h32.7V216.6z M665.7,167.3h-32.7V68.6h32.7V167.3
						z"/>
					<path clip-path="url(#SVGID_14_)" fill="#FCB415" d="M636.6-75.7c0-3.9,1.2-7.2,3.6-9.8c2.4-2.6,5.5-3.9,9.2-3.9
						c3.7,0,6.8,1.3,9.2,3.9c2.4,2.6,3.6,5.9,3.6,9.7c0,3.4-1.1,14.7-3.3,34c-2.2,19.3-4,38-5.5,56h-7.8c-1.7-18-3.6-36.7-5.8-56
						C637.7-61,636.6-72.4,636.6-75.7 M635.7,46.3c0-3.8,1.4-7,4.1-9.8c2.7-2.7,5.9-4.1,9.7-4.1c3.7,0,7,1.4,9.7,4.1
						c2.7,2.7,4.1,6,4.1,9.8c0,3.8-1.4,7-4.1,9.7c-2.7,2.7-5.9,4-9.7,4c-3.7,0-7-1.3-9.7-4C637,53.3,635.7,50.1,635.7,46.3"/>
					<path clip-path="url(#SVGID_14_)" fill="#FCB415" d="M620.3,238.1c0,3.9-1.2,7.2-3.6,9.8c-2.4,2.6-5.5,3.9-9.2,3.9
						c-3.7,0-6.8-1.3-9.2-3.9c-2.4-2.6-3.6-5.9-3.6-9.7c0-3.4,1.1-14.7,3.3-34c2.2-19.3,4-38,5.5-56h7.8c1.7,18,3.6,36.7,5.8,56
						C619.2,223.4,620.3,234.7,620.3,238.1 M621.2,116c0,3.8-1.4,7-4.1,9.8c-2.7,2.7-5.9,4.1-9.7,4.1c-3.7,0-7-1.4-9.7-4.1
						c-2.7-2.7-4.1-6-4.1-9.8c0-3.8,1.4-7,4.1-9.7c2.7-2.7,5.9-4,9.7-4c3.7,0,7,1.3,9.7,4C619.8,109,621.2,112.2,621.2,116"/>
					<path clip-path="url(#SVGID_14_)" fill="#FCB415" d="M591.1-54.3h32.7v32.8h-32.7V-54.3z M591.1-4.9h32.7v98.7h-32.7V-4.9z"/>
					<polygon clip-path="url(#SVGID_14_)" fill="#FCB415" points="570.8,168.2 544.1,168.2 536.7,66.7 578.4,66.7 					"/>
					<path clip-path="url(#SVGID_14_)" fill="#FCB415" d="M557.8,179.4c9.7,0,17.5,7.9,17.5,17.7c0,9.8-7.8,17.7-17.5,17.7
						c-9.7,0-17.5-7.9-17.5-17.7C540.3,187.3,548.1,179.4,557.8,179.4"/>
					<polygon clip-path="url(#SVGID_14_)" fill="#FCB415" points="544.4,11.9 536,-55.8 536,-89.5 579.5,-89.5 579.5,-55.8 
						571.3,11.9 					"/>
					<rect x="544.7" y="25.2" clip-path="url(#SVGID_14_)" fill="#FCB415" width="26.1" height="26.3"/>
					<polygon clip-path="url(#SVGID_14_)" fill="#FCB415" points="579.5,230 536,230 536,263.7 544.4,331.3 571.3,331.3 
						579.5,263.7 					"/>
					<polygon clip-path="url(#SVGID_14_)" fill="#FCB415" points="686,-6.1 712.7,-6.1 720.1,95.4 678.4,95.4 					"/>
					<path clip-path="url(#SVGID_14_)" fill="#FCB415" d="M699-17.3c-9.7,0-17.5-7.9-17.5-17.7c0-9.8,7.8-17.7,17.5-17.7
						c9.7,0,17.5,7.9,17.5,17.7C716.6-25.2,708.7-17.3,699-17.3"/>
					<polygon clip-path="url(#SVGID_14_)" fill="#FCB415" points="677.3,251.8 720.8,251.8 720.8,218.1 712.4,150.5 685.5,150.5 
						677.3,218.1 					"/>
					<rect x="686" y="110.9" clip-path="url(#SVGID_14_)" fill="#FCB415" width="26.1" height="26.3"/>
					<path clip-path="url(#SVGID_14_)" fill="#FCB415" d="M746.8-198.8c-1.6,0-3-0.3-4.4-0.9c-1.4-0.6-2.6-1.4-3.6-2.4
						c-1-1-1.8-2.2-2.4-3.5c-0.6-1.4-0.9-2.8-0.9-4.3c0-1.6,0.3-3,0.9-4.4c0.6-1.3,1.4-2.5,2.4-3.5c1-1,2.2-1.8,3.6-2.4
						c1.4-0.6,2.9-0.9,4.4-0.9c1.6,0,3,0.3,4.4,0.9c1.4,0.6,2.6,1.4,3.6,2.4c1,1,1.8,2.1,2.4,3.5c0.6,1.3,0.9,2.8,0.9,4.4
						c0,1.5-0.3,2.9-0.9,4.3c-0.6,1.4-1.4,2.5-2.4,3.5c-1,1-2.2,1.8-3.6,2.4C749.8-199.1,748.3-198.8,746.8-198.8 M749.9-182
						c0.3,7.7,1,15.5,1.9,23.4c1,7.9,2,15.7,3,23.4c1,7.7,2,15.3,2.9,22.6c0.9,7.4,1.3,14.4,1.3,20.9c0,5.2-1.2,9.2-3.5,12.1
						c-2.3,2.9-5.3,4.4-8.8,4.4c-1.6,0-3.1-0.4-4.5-1.1c-1.4-0.7-2.7-1.8-3.8-3.2c-1.1-1.4-2-3.1-2.7-5.2c-0.7-2-1.1-4.4-1.1-6.9
						c0-6.6,0.4-13.6,1.2-20.9c0.8-7.4,1.8-14.9,2.8-22.6c1.1-7.7,2-15.5,3-23.4c0.9-7.9,1.6-15.7,1.9-23.4H749.9z"/>
					<path clip-path="url(#SVGID_14_)" fill="#FCB415" d="M732.4-377.4h29v29.2h-29V-377.4z M754.1-333.6l7.2,58.5v43.8h-29v-43.8
						l7.2-58.5H754.1z"/>
					<path clip-path="url(#SVGID_14_)" fill="#FCB415" d="M746.8-518.2c-1.6,0-3-0.3-4.4-0.9c-1.4-0.6-2.6-1.4-3.6-2.4
						c-1-1-1.8-2.2-2.4-3.5c-0.6-1.4-0.9-2.8-0.9-4.3c0-1.6,0.3-3,0.9-4.4c0.6-1.3,1.4-2.5,2.4-3.5c1-1,2.2-1.8,3.6-2.4
						c1.4-0.6,2.9-0.9,4.4-0.9c1.6,0,3,0.3,4.4,0.9c1.4,0.6,2.6,1.4,3.6,2.4c1,1,1.8,2.1,2.4,3.5c0.6,1.3,0.9,2.8,0.9,4.4
						c0,1.5-0.3,2.9-0.9,4.3c-0.6,1.4-1.4,2.5-2.4,3.5c-1,1-2.2,1.8-3.6,2.4C749.8-518.5,748.3-518.2,746.8-518.2 M749.9-501.4
						c0.3,7.7,1,15.5,1.9,23.4c1,7.9,2,15.7,3,23.4c1,7.7,2,15.3,2.9,22.6c0.9,7.4,1.3,14.4,1.3,20.9c0,5.2-1.2,9.2-3.5,12.1
						c-2.3,2.9-5.3,4.4-8.8,4.4c-1.6,0-3.1-0.4-4.5-1.1c-1.4-0.7-2.7-1.8-3.8-3.2c-1.1-1.4-2-3.1-2.7-5.2c-0.7-2-1.1-4.4-1.1-6.9
						c0-6.6,0.4-13.6,1.2-20.9c0.8-7.4,1.8-14.9,2.8-22.6c1.1-7.7,2-15.5,3-23.4c0.9-7.9,1.6-15.7,1.9-23.4H749.9z"/>
					<path clip-path="url(#SVGID_14_)" fill="#FCB415" d="M442.1-198.8c-1.6,0-3-0.3-4.4-0.9c-1.4-0.6-2.6-1.4-3.6-2.4
						c-1-1-1.8-2.2-2.4-3.5c-0.6-1.4-0.9-2.8-0.9-4.3c0-1.6,0.3-3,0.9-4.4c0.6-1.3,1.4-2.5,2.4-3.5c1-1,2.2-1.8,3.6-2.4
						c1.4-0.6,2.9-0.9,4.4-0.9c1.6,0,3,0.3,4.4,0.9c1.4,0.6,2.6,1.4,3.6,2.4c1,1,1.8,2.1,2.4,3.5c0.6,1.3,0.9,2.8,0.9,4.4
						c0,1.5-0.3,2.9-0.9,4.3c-0.6,1.4-1.4,2.5-2.4,3.5c-1,1-2.2,1.8-3.6,2.4C445.1-199.1,443.6-198.8,442.1-198.8 M445.2-182
						c0.3,7.7,1,15.5,1.9,23.4c1,7.9,2,15.7,3,23.4c1,7.7,2,15.3,2.9,22.6c0.9,7.4,1.3,14.4,1.3,20.9c0,5.2-1.2,9.2-3.5,12.1
						c-2.3,2.9-5.3,4.4-8.8,4.4c-1.6,0-3.1-0.4-4.5-1.1c-1.4-0.7-2.7-1.8-3.9-3.2c-1.1-1.4-2-3.1-2.7-5.2c-0.7-2-1.1-4.4-1.1-6.9
						c0-6.6,0.4-13.6,1.2-20.9c0.8-7.4,1.7-14.9,2.8-22.6c1.1-7.7,2-15.5,3-23.4c0.9-7.9,1.6-15.7,1.9-23.4H445.2z"/>
					<path clip-path="url(#SVGID_14_)" fill="#FCB415" d="M427.7-348.7h29v-29.2h-29V-348.7z M456.6-231.7v-43.8l-7.2-58.5h-14.5
						l-7.2,58.5v43.8H456.6z"/>
					<path clip-path="url(#SVGID_14_)" fill="#FCB415" d="M521.7-203.3H504v-17.8h17.7V-203.3z M524.5-73.1H501l4.8-110.9h14.4
						L524.5-73.1z"/>
					<path clip-path="url(#SVGID_14_)" fill="#FCB415" d="M521.6-357.7h-17.7v-20.1h17.7V-357.7z M503.9-231.8V-292l4-48.9h9.8
						l4,49.1v60H503.9z"/>
					<path clip-path="url(#SVGID_14_)" fill="#FCB415" d="M442.1-518.2c-1.6,0-3-0.3-4.4-0.9c-1.4-0.6-2.6-1.4-3.6-2.4
						c-1-1-1.8-2.2-2.4-3.5c-0.6-1.4-0.9-2.8-0.9-4.3c0-1.6,0.3-3,0.9-4.4c0.6-1.3,1.4-2.5,2.4-3.5c1-1,2.2-1.8,3.6-2.4
						c1.4-0.6,2.9-0.9,4.4-0.9c1.6,0,3,0.3,4.4,0.9c1.4,0.6,2.6,1.4,3.6,2.4c1,1,1.8,2.1,2.4,3.5c0.6,1.3,0.9,2.8,0.9,4.4
						c0,1.5-0.3,2.9-0.9,4.3c-0.6,1.4-1.4,2.5-2.4,3.5c-1,1-2.2,1.8-3.6,2.4C445.1-518.5,443.6-518.2,442.1-518.2 M445.2-501.4
						c0.3,7.7,1,15.5,1.9,23.4c1,7.9,2,15.7,3,23.4c1,7.7,2,15.3,2.9,22.6c0.9,7.4,1.3,14.4,1.3,20.9c0,5.2-1.2,9.2-3.5,12.1
						c-2.3,2.9-5.3,4.4-8.8,4.4c-1.6,0-3.1-0.4-4.5-1.1c-1.4-0.7-2.7-1.8-3.9-3.2c-1.1-1.4-2-3.1-2.7-5.2c-0.7-2-1.1-4.4-1.1-6.9
						c0-6.6,0.4-13.6,1.2-20.9c0.8-7.4,1.7-14.9,2.8-22.6c1.1-7.7,2-15.5,3-23.4c0.9-7.9,1.6-15.7,1.9-23.4H445.2z"/>
					<path clip-path="url(#SVGID_14_)" fill="#FCB415" d="M521.7-522.7H504v-17.8h17.7V-522.7z M524.5-392.5H501l4.8-110.9h14.4
						L524.5-392.5z"/>
					<path clip-path="url(#SVGID_14_)" fill="#FCB415" d="M468-400.2c0,4.6,7.1,66.7,7.5,86.7c0,1.1,0.2,1.5,1.5,1.5h3.8
						c1.3,0,1.5-0.8,1.5-2.1c0.4-20.3,6.3-77.4,6.3-86.1c0-6.5-4.4-12.4-10-12.4C472.8-412.6,467.4-409.2,468-400.2"/>
					<path clip-path="url(#SVGID_14_)" fill="#FCB415" d="M478.8-289.6c6.4,0,11.6,5.2,11.6,11.7c0,6.4-5.2,11.7-11.6,11.7
						c-6.4,0-11.6-5.2-11.6-11.7C467.2-284.4,472.4-289.6,478.8-289.6"/>
					<rect x="468.4" y="-256.7" clip-path="url(#SVGID_14_)" fill="#FCB415" width="20.9" height="111.7"/>
					<path clip-path="url(#SVGID_14_)" fill="#FCB415" d="M491.7-124.7c0-3.5-1.3-6.5-3.8-9c-2.5-2.5-5.5-3.8-9-3.8
						c-3.5,0-6.5,1.3-9,3.8c-2.5,2.5-3.8,5.6-3.8,9.1c0,3.6,1.3,6.7,3.8,9.2c2.5,2.5,5.5,3.7,9,3.7c3.6,0,6.7-1.2,9.1-3.7
						C490.4-117.9,491.7-121,491.7-124.7"/>
					<rect x="468.4" y="-576.1" clip-path="url(#SVGID_14_)" fill="#FCB415" width="20.9" height="111.7"/>
					<path clip-path="url(#SVGID_14_)" fill="#FCB415" d="M491.7-444.2c0-3.5-1.3-6.5-3.8-9c-2.5-2.5-5.5-3.8-9-3.8
						c-3.5,0-6.5,1.3-9,3.8c-2.5,2.5-3.8,5.6-3.8,9.1c0,3.6,1.3,6.7,3.8,9.2c2.5,2.5,5.5,3.7,9,3.7c3.6,0,6.7-1.2,9.1-3.7
						C490.4-437.4,491.7-440.5,491.7-444.2"/>
					<path clip-path="url(#SVGID_14_)" fill="#FCB415" d="M665.7-107h-32.7v-32.8h32.7V-107z M665.7-156.3h-32.7V-255h32.7V-156.3z"
						/>
					<path clip-path="url(#SVGID_14_)" fill="#FCB415" d="M636.6-399.4c0-3.9,1.2-7.2,3.6-9.8c2.4-2.6,5.5-3.9,9.2-3.9
						c3.7,0,6.8,1.3,9.2,3.9c2.4,2.6,3.6,5.9,3.6,9.7c0,3.4-1.1,14.7-3.3,34c-2.2,19.3-4,38-5.5,56h-7.8c-1.7-18-3.6-36.7-5.8-56
						C637.7-384.7,636.6-396,636.6-399.4 M635.7-277.3c0-3.8,1.4-7,4.1-9.8c2.7-2.7,5.9-4.1,9.7-4.1c3.7,0,7,1.4,9.7,4.1
						c2.7,2.7,4.1,6,4.1,9.8c0,3.8-1.4,7-4.1,9.7c-2.7,2.7-5.9,4-9.7,4c-3.7,0-7-1.3-9.7-4C637-270.3,635.7-273.5,635.7-277.3"/>
					<path clip-path="url(#SVGID_14_)" fill="#FCB415" d="M620.3-85.5c0,3.9-1.2,7.2-3.6,9.8c-2.4,2.6-5.5,3.9-9.2,3.9
						c-3.7,0-6.8-1.3-9.2-3.9c-2.4-2.6-3.6-5.9-3.6-9.7c0-3.4,1.1-14.7,3.3-34c2.2-19.3,4-38,5.5-56h7.8c1.7,18,3.6,36.7,5.8,56
						C619.2-100.2,620.3-88.9,620.3-85.5 M621.2-207.6c0,3.8-1.4,7-4.1,9.8c-2.7,2.7-5.9,4.1-9.7,4.1c-3.7,0-7-1.4-9.7-4.1
						c-2.7-2.7-4.1-6-4.1-9.8c0-3.8,1.4-7,4.1-9.7c2.7-2.7,5.9-4,9.7-4c3.7,0,7,1.3,9.7,4C619.8-214.6,621.2-211.4,621.2-207.6"/>
					<path clip-path="url(#SVGID_14_)" fill="#FCB415" d="M591.1-377.9h32.7v32.8h-32.7V-377.9z M591.1-328.6h32.7v98.7h-32.7
						V-328.6z"/>
					<path clip-path="url(#SVGID_14_)" fill="#FCB415" d="M665.7-426.4h-32.7v-32.8h32.7V-426.4z M665.7-475.8h-32.7v-98.7h32.7
						V-475.8z"/>
					<path clip-path="url(#SVGID_14_)" fill="#FCB415" d="M620.3-405c0,3.9-1.2,7.2-3.6,9.8c-2.4,2.6-5.5,3.9-9.2,3.9
						c-3.7,0-6.8-1.3-9.2-3.9c-2.4-2.6-3.6-5.9-3.6-9.7c0-3.4,1.1-14.7,3.3-34c2.2-19.3,4-38,5.5-56h7.8c1.7,18,3.6,36.7,5.8,56
						C619.2-419.7,620.3-408.3,620.3-405 M621.2-527.1c0,3.8-1.4,7-4.1,9.8c-2.7,2.7-5.9,4.1-9.7,4.1c-3.7,0-7-1.4-9.7-4.1
						c-2.7-2.7-4.1-6-4.1-9.8c0-3.8,1.4-7,4.1-9.7c2.7-2.7,5.9-4,9.7-4c3.7,0,7,1.3,9.7,4C619.8-534.1,621.2-530.8,621.2-527.1"/>
					<polygon clip-path="url(#SVGID_14_)" fill="#FCB415" points="570.8,-155.2 544.1,-155.2 536.7,-256.7 578.4,-256.7 					"/>
					<path clip-path="url(#SVGID_14_)" fill="#FCB415" d="M557.8-144c9.7,0,17.5,7.9,17.5,17.7c0,9.8-7.8,17.7-17.5,17.7
						c-9.7,0-17.5-7.9-17.5-17.7C540.3-136.1,548.1-144,557.8-144"/>
					<polygon clip-path="url(#SVGID_14_)" fill="#FCB415" points="570.8,-474.9 544.1,-474.9 536.7,-576.3 578.4,-576.3 					"/>
					<path clip-path="url(#SVGID_14_)" fill="#FCB415" d="M557.8-463.6c9.7,0,17.5,7.9,17.5,17.7c0,9.8-7.8,17.7-17.5,17.7
						c-9.7,0-17.5-7.9-17.5-17.7C540.3-455.7,548.1-463.6,557.8-463.6"/>
					<polygon clip-path="url(#SVGID_14_)" fill="#FCB415" points="579.5,-413.1 536,-413.1 536,-379.4 544.4,-311.7 571.3,-311.7 
						579.5,-379.4 					"/>
					<rect x="544.7" y="-298.4" clip-path="url(#SVGID_14_)" fill="#FCB415" width="26.1" height="26.3"/>
					<polygon clip-path="url(#SVGID_14_)" fill="#FCB415" points="686,-329.4 712.7,-329.4 720.1,-228 678.4,-228 					"/>
					<path clip-path="url(#SVGID_14_)" fill="#FCB415" d="M699-340.7c-9.7,0-17.5-7.9-17.5-17.7c0-9.8,7.8-17.7,17.5-17.7
						c9.7,0,17.5,7.9,17.5,17.7C716.6-348.6,708.7-340.7,699-340.7"/>
					<polygon clip-path="url(#SVGID_14_)" fill="#FCB415" points="677.3,-71.8 720.8,-71.8 720.8,-105.5 712.4,-173.2 685.5,-173.2 
						677.3,-105.5 					"/>
					<rect x="686" y="-212.8" clip-path="url(#SVGID_14_)" fill="#FCB415" width="26.1" height="26.3"/>
					<polygon clip-path="url(#SVGID_14_)" fill="#FCB415" points="677.3,-391.3 720.8,-391.3 720.8,-424.9 712.4,-492.6 
						685.5,-492.6 677.3,-424.9 					"/>
				</g>
			</g>
		</g>
	</g>
</g>
</svg>
